<?xml version="1.0" encoding="iso-8859-1"?>
<!-- Generator: Adobe Illustrator 19.0.0, SVG Export Plug-In . SVG Version: 6.00 Build 0)  -->
<svg version="1.1" id="Layer_1" xmlns="http://www.w3.org/2000/svg" xmlns:xlink="http://www.w3.org/1999/xlink" x="0px" y="0px"
	 viewBox="0 0 512 512" style="enable-background:new 0 0 512 512;" xml:space="preserve">
<path style="fill:#FFB655;" d="M256,0c-15.439,0-30.563,1.373-45.258,4.006c-4.198,0.752-8.361,1.606-12.487,2.562
	c-2.062,0.478-4.116,0.979-6.16,1.507c-16.347,4.215-32.065,10.01-46.985,17.209c-3.73,1.8-7.41,3.688-11.036,5.66
	C114.126,41.795,95.772,55.22,79.462,70.772c-5.931,5.655-11.591,11.591-16.96,17.787c-2.684,3.098-5.295,6.26-7.832,9.486
	c-8.875,11.287-16.823,23.336-23.727,36.031c-2.959,5.441-5.727,11-8.294,16.668c-6.845,15.116-12.263,31.012-16.083,47.512
	c-0.954,4.125-1.809,8.288-2.562,12.487C1.373,225.437,0,240.561,0,256s1.373,30.563,4.006,45.258
	c0.752,4.198,1.606,8.361,2.562,12.487c3.818,16.5,9.238,32.396,16.083,47.512c2.568,5.669,5.334,11.228,8.294,16.668
	c6.904,12.695,14.853,24.744,23.727,36.031c2.535,3.226,5.148,6.388,7.832,9.486c5.368,6.195,11.03,12.133,16.96,17.787
	c16.31,15.552,34.664,28.978,54.613,39.829c3.627,1.974,7.306,3.86,11.036,5.66c14.919,7.199,30.639,12.994,46.985,17.209
	c2.043,0.527,4.096,1.029,6.16,1.507c4.125,0.954,8.288,1.809,12.487,2.562C225.437,510.627,240.561,512,256,512
	c38.498,0,69.818-31.32,69.818-69.818s-31.32-69.818-69.818-69.818c-12.833,0-23.273-10.44-23.273-23.273
	c0-12.833,10.44-23.273,23.273-23.273h228.067c11.069,0,20.604-7.795,22.807-18.641C510.276,290.428,512,273.211,512,256
	C512,114.842,397.158,0,256,0z"/>
<circle style="fill:#78B86D;" cx="351.279" cy="160.721" r="34.909"/>
<circle style="fill:#5286FA;" cx="256" cy="121.251" r="34.909"/>
<circle style="fill:#D8143A;" cx="160.721" cy="160.721" r="34.909"/>
<path style="fill:#EE8700;" d="M221.094,121.249c0-19.278,15.628-34.906,34.906-34.909V0C114.842,0,0,114.842,0,256
	s114.842,256,256,256V372.364c-12.833,0-23.273-10.44-23.273-23.273c0-12.833,10.44-23.273,23.273-23.273v-169.66
	C236.722,156.158,221.094,140.528,221.094,121.249z M185.405,185.401c-13.633,13.633-35.736,13.633-49.368,0
	c-13.633-13.633-13.633-35.736,0-49.369c13.632-13.633,35.734-13.633,49.368,0C199.036,149.665,199.038,171.768,185.405,185.401z"/>
<g>
</g>
<g>
</g>
<g>
</g>
<g>
</g>
<g>
</g>
<g>
</g>
<g>
</g>
<g>
</g>
<g>
</g>
<g>
</g>
<g>
</g>
<g>
</g>
<g>
</g>
<g>
</g>
<g>
</g>
</svg>
